<svg width="80" height="80" xmlns="http://www.w3.org/2000/svg"><path d="M80 40a40 40 0 10-80 0 40 40 0 0080 0z" fill="#fff"/><path d="M30.7 1A40.4 40.4 0 005.2 59.3C8.6 65.6 17.1 74 20.1 74c1 0 1.9.4 1.9.9s1.4 1.4 3.1 2c2.6.9 3 .8 2.6-.3-.4-1 .5-.8 3.1.6l3.7 2.2-2.1-2.5c-2.7-3-4.4-6.3-4.4-8.3 0-1.3.5-1.4 2.6-.6 5.1 2 13.7.6 17.6-2.7 1.4-1.3 2-1 5.2 2.4 1.9 2.1 3.6 4.4 3.6 5 0 2.8 4.9 1.2 9.9-3.3A39.6 39.6 0 0042.2.4C38 .2 32.8.5 30.7 1zm20.8 20.1c2.1 4.5 1.8 5.3-1.6 4.1-3.8-1.5-12.9 1.3-12.9 3.9 0 1.7 2.9 3.5 5.6 3.3 6.6-.2 7.4-.5 7.4-1.9 0-1.1-1.1-1.3-5.2-.9-5.2.4-5.3.4-2.3-1 3.6-1.8 6-1.9 8.6-.6 1.4.8 1.9.7 2-.2 0-.7.7.7 1.5 3.2 2.7 8.5 0 27-4 27-.8 0-2.1.6-2.8 1.3a13.7 13.7 0 01-9.5 4.2c-3.8-.2-8.3-2.3-8.3-4.1 0-.6-.9-1.4-2-1.7-2.6-.7-5-6.4-5-11.8 0-5.3 3.5-11.3 6.1-10.6 1.5.4 1.9 0 1.9-2.3 0-1.6-.4-3.2-1-3.5-5.2-3.2 10.9-14.5 18.1-12.7.9.2 2.5 2.1 3.4 4.3z"/></svg>